# xmcd
#
# Track frame offsets:
#	150
#	22685
#	43110
#	63882
#	81670
#	101612
#	117967
#	137430
#	156205
#	176100
#	192360
#	213007
#
# Disc length: 3048 seconds
#
# Revision: 1
# Processed by: cddbd v1.5.2PL0 Copyright (c) Steve Scherf et al.
# Submitted via: EZCDAudioConverter 8.0.2.1
#
DISCID=9c0be60c
DTITLE=Lưu Bích - Đêm Vắng Anh
DYEAR=1999
DGENRE=World Pop
TTITLE0=Lưu Bích - Đêm Vắng Anh
TTITLE1=Lưu Bích - Niềm đau của cát
TTITLE2=Lưu Bích - Giã từ dĩ vãng
TTITLE3=Lưu Bích - Tình đời ca sĩ
TTITLE4=Lưu Bích, Tuấn Ngọc - Trái tim không ngủ yên
TTITLE5=Lưu Bích - Em sẽ cố quên
TTITLE6=Lưu Bích - Nếu
TTITLE7=Lưu Bích - Anh thì không
TTITLE8=Lưu Bích - Người con gái
TTITLE9=Lưu Bích, Maurice Đạt - Tình vẫn chưa nguôi
TTITLE10=Lưu Bích - Đừng nói yêu em
TTITLE11=Soundtrack - Tình đời ca sĩ
EXTD=
EXTT0=
EXTT1=
EXTT2=
EXTT3=
EXTT4=
EXTT5=
EXTT6=
EXTT7=
EXTT8=
EXTT9=
EXTT10=
EXTT11=
PLAYORDER=
